<svg width="150" height="150" viewBox="0 0 150 150" fill="none" xmlns="http://www.w3.org/2000/svg">
<path d="M26.6278 118V34H42.4678V103.6H80.8678V118H26.6278ZM65.7469 118V58.48H80.6269V66.28H82.7869C83.7469 64.2 85.5469 62.24 88.1869 60.4C90.8269 58.48 94.8269 57.52 100.187 57.52C104.827 57.52 108.867 58.6 112.307 60.76C115.827 62.84 118.547 65.76 120.467 69.52C122.387 73.2 123.347 77.52 123.347 82.48V118H108.227V83.68C108.227 79.2 107.107 75.84 104.867 73.6C102.707 71.36 99.5869 70.24 95.5069 70.24C90.8669 70.24 87.2669 71.8 84.7069 74.92C82.1469 77.96 80.8669 82.24 80.8669 87.76V118H65.7469Z" fill="#0A0A0A"/>
</svg>
